<svg width="18" height="22" viewBox="0 0 18 22" fill="none" xmlns="http://www.w3.org/2000/svg">
<path fill-rule="evenodd" clip-rule="evenodd" d="M3.45403 3.31005C4.90109 1.72055 7.0043 0.948431 9.17704 1.00267C11.3498 0.948431 13.453 1.72055 14.9001 3.31005C16.5415 4.56409 17.3922 6.51154 17.3528 8.69395C17.3514 14.2099 9.78796 20.6241 9.17704 21C8.57472 20.6641 1.00272 14.8337 1.00131 8.69395C0.961857 6.51154 1.81254 4.56409 3.45403 3.31005ZM5.07358 7.92577C5.07358 10.2332 6.74465 11.7853 9.17791 11.7853C11.6428 11.7853 13.2821 10.2524 13.2821 7.92577C13.2821 5.62054 11.6263 4.0821 9.17791 4.0821C6.72953 4.0821 5.07358 5.61838 5.07358 7.92577Z" fill="white"/>
<path d="M9.17704 1.00267L9.16456 1.50251L9.17704 1.50283L9.18952 1.50251L9.17704 1.00267ZM3.45403 3.31005L3.75757 3.70738L3.79341 3.68L3.82376 3.64665L3.45403 3.31005ZM14.9001 3.31005L14.5303 3.64665L14.5607 3.68L14.5965 3.70738L14.9001 3.31005ZM17.3528 8.69395L16.8528 8.68491L16.8528 8.69382L17.3528 8.69395ZM9.17704 21L8.9335 21.4367L9.18946 21.5794L9.43907 21.4258L9.17704 21ZM1.00131 8.69395L1.50139 8.69384L1.50123 8.68491L1.00131 8.69395ZM9.18952 0.502826C6.89347 0.445509 4.64279 1.26154 3.0843 2.97346L3.82376 3.64665C5.15939 2.17955 7.11512 1.45135 9.16456 1.50251L9.18952 0.502826ZM15.2698 2.97346C13.7113 1.26154 11.4606 0.445509 9.16456 0.502826L9.18952 1.50251C11.239 1.45135 13.1947 2.17955 14.5303 3.64665L15.2698 2.97346ZM17.8527 8.70299C17.8946 6.38217 16.9869 4.27514 15.2036 2.91273L14.5965 3.70738C16.0962 4.85304 16.8898 6.6409 16.8529 8.68491L17.8527 8.70299ZM9.43907 21.4258C9.55129 21.3568 9.76319 21.1919 10.0247 20.9729C10.2972 20.7447 10.6494 20.4359 11.0528 20.0602C11.8593 19.3091 12.8767 18.285 13.8762 17.0963C14.8745 15.9089 15.8631 14.5474 16.6043 13.1216C17.3435 11.6993 17.8524 10.1828 17.8528 8.69408L16.8528 8.69382C16.8524 9.96308 16.4153 11.3168 15.717 12.6603C15.0205 14.0003 14.0799 15.3001 13.1108 16.4527C12.1428 17.604 11.1548 18.5987 10.3713 19.3284C9.97971 19.693 9.64073 19.9901 9.38268 20.2062C9.11362 20.4315 8.95552 20.5492 8.91501 20.5742L9.43907 21.4258ZM0.501313 8.69407C0.502059 11.9523 2.49928 15.0628 4.4863 17.3512C5.48906 18.5061 6.50959 19.4748 7.31791 20.1764C8.11165 20.8655 8.7327 21.3247 8.9335 21.4367L9.42059 20.5633C9.32023 20.5074 8.76891 20.1118 7.97345 19.4213C7.19257 18.7434 6.20707 17.8078 5.24138 16.6956C3.29146 14.4499 1.50197 11.5754 1.50131 8.69384L0.501313 8.69407ZM3.15049 2.91273C1.36715 4.27514 0.459437 6.38217 0.501394 8.70299L1.50123 8.68491C1.46428 6.6409 2.25793 4.85304 3.75757 3.70738L3.15049 2.91273ZM9.17791 11.2853C8.06797 11.2853 7.1706 10.9327 6.55515 10.356C5.94256 9.78195 5.57358 8.95323 5.57358 7.92577H4.57358C4.57358 9.20569 5.04014 10.3068 5.87139 11.0857C6.6998 11.8619 7.85459 12.2853 9.17791 12.2853V11.2853ZM12.7821 7.92577C12.7821 8.96656 12.4186 9.79411 11.8121 10.3635C11.2027 10.9357 10.3067 11.2853 9.17791 11.2853V12.2853C10.5141 12.2853 11.6702 11.8685 12.4966 11.0925C13.326 10.3138 13.7821 9.21156 13.7821 7.92577H12.7821ZM9.17791 4.5821C10.2973 4.5821 11.1942 4.93245 11.8068 5.50481C12.4163 6.07431 12.7821 6.89836 12.7821 7.92577H13.7821C13.7821 6.64795 13.32 5.55016 12.4895 4.77414C11.6621 4.00097 10.5069 3.5821 9.17791 3.5821V4.5821ZM5.57358 7.92577C5.57358 6.89719 5.9395 6.07323 6.54889 5.50407C7.16138 4.93202 8.05838 4.5821 9.17791 4.5821V3.5821C7.84906 3.5821 6.6939 4.00032 5.86632 4.77325C5.03564 5.54909 4.57358 6.64696 4.57358 7.92577H5.57358Z" fill="white"/>
</svg>
