<svg width="335" height="215" viewBox="0 0 335 215" fill="none" xmlns="http://www.w3.org/2000/svg">
<g filter="url(#filter0_ii_4074_7022)">
<rect x="44.998" width="290" height="184" rx="16" fill="#DA0112"/>
<path d="M13.9029 213.907C6.45746 210.113 152.866 29.8426 152.866 29.8426L157.022 82.1029L205.339 78.2603C205.339 78.2603 21.3484 217.7 13.9029 213.907Z" fill="#DA0112"/>
</g>
<path opacity="0.9" d="M128.266 47.78C128.266 48.5 127.646 49.56 126.406 50.96C124.926 52.64 121.066 57.8 114.826 66.44C114.906 71.6 115.066 75.14 115.306 77.06C115.426 78.26 115.486 79.12 115.486 79.64C115.486 80.96 115.246 81.86 114.766 82.34C114.326 82.78 113.546 83 112.426 83C111.586 83 110.786 82.76 110.026 82.28C109.306 81.76 108.946 81.14 108.946 80.42C108.946 77.5 108.886 73.22 108.766 67.58C108.766 67.34 108.606 66.94 108.286 66.38C107.966 65.82 107.766 65.46 107.686 65.3C106.846 63.82 105.786 62.18 104.506 60.38C103.266 58.54 102.186 57.16 101.266 56.24C99.506 54.48 98.126 52.9 97.126 51.5C96.126 50.06 95.626 49.04 95.626 48.44C95.626 47.6 96.006 46.94 96.766 46.46C97.566 45.94 98.426 45.68 99.346 45.68C99.866 45.68 100.406 45.82 100.966 46.1C101.566 46.38 102.046 46.78 102.406 47.3C104.766 50.82 106.866 53.74 108.706 56.06L111.526 59.72C113.246 57.96 114.746 56.22 116.026 54.5C117.346 52.74 118.786 50.66 120.346 48.26L121.366 46.7C122.126 45.66 123.306 45.14 124.906 45.14C125.666 45.14 126.406 45.36 127.126 45.8C127.886 46.24 128.266 46.9 128.266 47.78ZM151.782 63.74C152.102 64.3 152.362 65.12 152.562 66.2C152.762 67.24 152.862 68.18 152.862 69.02C152.862 70.58 152.522 72.8 151.842 75.68C149.082 80.72 145.002 83.24 139.602 83.24C137.602 83.24 135.562 82.58 133.482 81.26C131.402 79.94 129.962 78.42 129.162 76.7C128.082 73.26 127.542 71.08 127.542 70.16C127.542 68.56 127.882 66.86 128.562 65.06C129.282 63.26 130.182 61.7 131.262 60.38C131.942 59.46 133.162 58.68 134.922 58.04C136.682 57.36 138.282 57.02 139.722 57.02C142.522 57.02 144.902 57.56 146.862 58.64C148.822 59.68 150.462 61.38 151.782 63.74ZM146.562 73.4C146.762 72.88 146.862 71.54 146.862 69.38C146.862 68.22 146.642 67.08 146.202 65.96C145.802 64.84 145.202 63.88 144.402 63.08C144.322 63 144.102 62.88 143.742 62.72C143.382 62.52 142.882 62.34 142.242 62.18C141.642 61.98 140.942 61.88 140.142 61.88C137.902 61.88 136.262 62.78 135.222 64.58C134.182 66.38 133.662 68.42 133.662 70.7C133.662 71.1 133.762 71.86 133.962 72.98C134.202 74.1 134.402 74.8 134.562 75.08C134.682 75.36 134.982 75.76 135.462 76.28C135.982 76.76 136.602 77.2 137.322 77.6C138.082 77.96 138.862 78.14 139.662 78.14C141.462 78.14 142.902 77.72 143.982 76.88C145.062 76 145.922 74.84 146.562 73.4ZM161.305 56.96C163.945 56.96 165.265 58.7 165.265 62.18C165.265 62.62 165.225 63.6 165.145 65.12C165.065 66.88 165.025 68.26 165.025 69.26C165.025 72.06 165.405 74.32 166.165 76.04C166.445 76.6 166.945 77.04 167.665 77.36C168.425 77.68 169.065 77.84 169.585 77.84C170.385 77.84 171.045 77.74 171.565 77.54C172.085 77.34 172.565 77.04 173.005 76.64C173.485 76.24 173.945 75.8 174.385 75.32C175.145 74.48 175.625 73.52 175.825 72.44C176.065 71.32 176.205 69.84 176.245 68C176.245 66.84 176.305 65.72 176.425 64.64C176.665 62.88 176.785 61.24 176.785 59.72C176.785 58.88 177.005 58.18 177.445 57.62C177.925 57.02 178.605 56.72 179.485 56.72C179.925 56.72 180.445 56.88 181.045 57.2C181.685 57.48 182.105 57.8 182.305 58.16C182.585 58.64 182.725 59.3 182.725 60.14C182.725 60.66 182.665 61.14 182.545 61.58C182.345 62.18 182.245 62.94 182.245 63.86C182.245 64.34 182.285 65.14 182.365 66.26C182.485 67.1 182.545 67.96 182.545 68.84C182.545 71.52 182.745 73.5 183.145 74.78C183.585 76.14 184.185 77.34 184.945 78.38C185.745 79.22 186.285 79.84 186.565 80.24C186.845 80.6 186.985 80.92 186.985 81.2C186.985 81.68 186.745 82.14 186.265 82.58C185.785 83.02 185.285 83.24 184.765 83.24C183.285 83.24 181.985 82.74 180.865 81.74C179.785 80.7 178.985 79.38 178.465 77.78C178.025 78.3 177.445 78.94 176.725 79.7C176.005 80.46 175.325 81.08 174.685 81.56C173.125 82.68 171.125 83.24 168.685 83.24C167.685 83.24 166.585 82.94 165.385 82.34C164.225 81.74 163.165 80.96 162.205 80C161.245 79 160.585 77.94 160.225 76.82C160.185 76.74 160.065 76.42 159.865 75.86C159.705 75.3 159.625 74.46 159.625 73.34L159.565 63.74C159.565 63.18 159.425 62.3 159.145 61.1C158.905 60.3 158.785 59.7 158.785 59.3C158.785 58.62 159.005 58.06 159.445 57.62C159.925 57.18 160.545 56.96 161.305 56.96ZM232.195 80.12C232.195 81 231.715 81.74 230.755 82.34C229.795 82.94 228.915 83.24 228.115 83.24C226.635 83.24 225.435 83.06 224.515 82.7C223.635 82.3 222.795 81.58 221.995 80.54C220.995 81.46 219.595 82.16 217.795 82.64C215.995 83.08 214.335 83.3 212.815 83.3C210.335 83.3 208.275 82.64 206.635 81.32C205.035 79.96 204.235 77.98 204.235 75.38C204.235 74.26 204.575 73.14 205.255 72.02C205.935 70.86 206.775 69.94 207.775 69.26C208.855 68.54 210.075 68.06 211.435 67.82C212.795 67.54 214.375 67.4 216.175 67.4C217.015 67.4 218.015 67.56 219.175 67.88C220.335 68.2 221.255 68.54 221.935 68.9V67.94C221.935 65.78 221.395 64.3 220.315 63.5C219.275 62.66 217.595 62.24 215.275 62.24C214.555 62.24 213.895 62.36 213.295 62.6C212.735 62.8 212.075 63.1 211.315 63.5C210.595 63.9 209.915 64.1 209.275 64.1C208.715 64.1 208.175 63.88 207.655 63.44C207.135 62.96 206.875 62.46 206.875 61.94C206.875 60.26 207.915 59.04 209.995 58.28C212.115 57.48 214.275 57.08 216.475 57.08C217.595 57.08 218.875 57.32 220.315 57.8C221.755 58.24 222.975 58.86 223.975 59.66C225.175 60.66 226.095 61.86 226.735 63.26C227.415 64.66 227.755 66.18 227.755 67.82C227.755 68.34 227.715 69.12 227.635 70.16C227.555 71.28 227.515 72.24 227.515 73.04L227.455 74.66C227.375 75.54 227.335 76.24 227.335 76.76C227.335 77.24 227.495 77.66 227.815 78.02C228.175 78.34 228.595 78.5 229.075 78.5L230.755 78.44C231.195 78.44 231.535 78.62 231.775 78.98C232.055 79.3 232.195 79.68 232.195 80.12ZM212.815 78.56C214.535 78.56 215.975 78.38 217.135 78.02C218.295 77.66 219.695 77 221.335 76.04C221.495 75.36 221.595 74.46 221.635 73.34C219.435 72.3 217.615 71.78 216.175 71.78C214.815 71.78 213.715 71.84 212.875 71.96C212.035 72.04 211.275 72.38 210.595 72.98C209.915 73.58 209.575 74.54 209.575 75.86C209.575 76.62 209.935 77.26 210.655 77.78C211.415 78.3 212.135 78.56 212.815 78.56ZM244.949 80.6C244.949 81.28 244.689 81.88 244.169 82.4C243.649 82.92 243.009 83.18 242.249 83.18C241.049 83.18 240.169 82.96 239.609 82.52C239.049 82.04 238.769 81.18 238.769 79.94C238.769 78.46 238.729 76.52 238.649 74.12C238.569 72.12 238.529 70.44 238.529 69.08C238.529 68.44 238.569 67.6 238.649 66.56C238.729 65.6 238.769 64.88 238.769 64.4C238.649 63.64 238.349 63.02 237.869 62.54C237.389 62.02 236.769 61.76 236.009 61.76C235.649 61.76 235.349 61.6 235.109 61.28C234.869 60.92 234.749 60.56 234.749 60.2C234.749 59.28 235.109 58.58 235.829 58.1C236.589 57.62 237.489 57.38 238.529 57.38C240.689 57.38 242.189 58.66 243.029 61.22C244.069 60.02 245.249 59.06 246.569 58.34C247.929 57.58 249.229 57.2 250.469 57.2C251.949 57.2 253.289 57.6 254.489 58.4C255.729 59.2 256.349 60.28 256.349 61.64C256.349 62.4 256.009 63.18 255.329 63.98C254.689 64.78 254.029 65.18 253.349 65.18C252.989 65.18 252.669 65.1 252.389 64.94C252.149 64.74 251.849 64.46 251.489 64.1C251.089 63.7 250.749 63.42 250.469 63.26C250.189 63.06 249.869 62.96 249.509 62.96C248.869 62.96 248.269 63.06 247.709 63.26C247.149 63.46 246.769 63.7 246.569 63.98C245.929 64.98 245.449 65.88 245.129 66.68C244.849 67.48 244.709 68.34 244.709 69.26C244.709 69.94 244.689 70.48 244.649 70.88L244.589 74.3C244.589 74.82 244.609 75.4 244.649 76.04C244.689 76.68 244.729 77.16 244.769 77.48C244.889 78.56 244.949 79.6 244.949 80.6ZM259.436 70.28C259.436 68.76 259.716 67.24 260.276 65.72C260.836 64.16 261.576 62.74 262.496 61.46C263.416 60.18 264.876 59.14 266.876 58.34C268.876 57.5 270.656 57.08 272.216 57.08C273.816 57.08 275.436 57.3 277.076 57.74C278.756 58.18 279.916 58.86 280.556 59.78C282.036 61.86 282.776 63.9 282.776 65.9C282.776 66.98 282.536 67.9 282.056 68.66C281.616 69.42 280.976 70.24 280.136 71.12C279.456 71.84 278.376 72.32 276.896 72.56C275.456 72.8 274.016 72.92 272.576 72.92C271.656 72.92 270.536 72.84 269.216 72.68C267.896 72.48 266.616 72.24 265.376 71.96C265.456 72.76 265.656 73.54 265.976 74.3C266.296 75.06 266.676 75.64 267.116 76.04C267.916 76.8 268.736 77.28 269.576 77.48C270.456 77.68 271.576 77.78 272.936 77.78C274.376 77.78 275.716 77.54 276.956 77.06C277.956 76.7 278.776 76.52 279.416 76.52C280.176 76.52 280.756 76.76 281.156 77.24C281.556 77.68 281.756 78.26 281.756 78.98C281.756 79.98 281.176 80.8 280.016 81.44C278.856 82.08 277.516 82.56 275.996 82.88C274.516 83.16 273.316 83.3 272.396 83.3C270.516 83.3 268.696 82.96 266.936 82.28C265.176 81.6 263.716 80.64 262.556 79.4C261.596 78.28 260.836 76.94 260.276 75.38C259.716 73.78 259.436 72.08 259.436 70.28ZM272.516 62.18C271.636 62.18 270.756 62.36 269.876 62.72C268.996 63.04 268.276 63.5 267.716 64.1C266.996 64.86 266.496 65.48 266.216 65.96C265.976 66.4 265.816 67.02 265.736 67.82C266.736 68.14 268.816 68.3 271.976 68.3C273.696 68.3 275.016 68.04 275.936 67.52C276.896 67 277.376 66.32 277.376 65.48C277.376 64.64 276.856 63.88 275.816 63.2C274.776 62.52 273.676 62.18 272.516 62.18ZM145.69 115.52C145.65 114.88 145.63 113.92 145.63 112.64V110.36C145.63 108.84 145.59 107.7 145.51 106.94C145.43 106.3 145.39 104.64 145.39 101.96C145.39 101 145.67 100.26 146.23 99.74C146.83 99.18 147.63 98.9 148.63 98.9C149.91 98.9 150.77 99.18 151.21 99.74C151.65 100.3 151.87 101.22 151.87 102.5V104.78L151.81 111.38C151.77 112.66 151.75 114.58 151.75 117.14L151.81 122.06C151.85 122.82 151.87 123.88 151.87 125.24C151.87 126.32 151.91 127.86 151.99 129.86C152.07 131.7 152.11 133.08 152.11 134C152.11 134.76 151.89 135.46 151.45 136.1C151.05 136.74 150.49 137.06 149.77 137.06C146.97 137.06 145.57 136.12 145.57 134.24C145.57 133.2 145.61 132.04 145.69 130.76C145.77 129.84 145.81 128.44 145.81 126.56C145.81 125.24 145.77 123.34 145.69 120.86C143.81 121.02 140.57 121.1 135.97 121.1C133.09 121.1 130.85 121.1 129.25 121.1C127.65 121.06 126.49 120.96 125.77 120.8L125.71 127.7C125.71 128.14 125.81 129.32 126.01 131.24C126.21 132.52 126.31 133.64 126.31 134.6C126.31 135.2 125.95 135.78 125.23 136.34C124.55 136.86 123.91 137.12 123.31 137.12C121.87 137.12 120.89 136.78 120.37 136.1C119.85 135.38 119.59 134.3 119.59 132.86L119.53 128.12C119.49 127.56 119.47 126.78 119.47 125.78C119.47 124.3 119.43 122.28 119.35 119.72C119.27 117.4 119.23 115.72 119.23 114.68C119.23 113.12 119.27 110.94 119.35 108.14C119.43 105.5 119.47 103.54 119.47 102.26C119.47 100.98 119.79 100.12 120.43 99.68C121.07 99.24 121.79 99.02 122.59 99.02C124.83 99.02 125.95 99.76 125.95 101.24C125.95 103.88 125.89 106.4 125.77 108.8C125.69 111.84 125.65 114.06 125.65 115.46C126.81 115.74 128.03 115.92 129.31 116C130.59 116.08 132.39 116.12 134.71 116.12C139.43 116.12 143.09 115.92 145.69 115.52ZM159.033 123.26C159.033 120.82 159.573 118.8 160.653 117.2C161.733 115.56 163.233 114.02 165.153 112.58C165.713 112.18 166.653 111.84 167.973 111.56C169.293 111.24 170.453 111.08 171.453 111.08C172.653 111.08 173.913 111.34 175.233 111.86C176.593 112.34 177.693 112.9 178.533 113.54C180.013 114.62 181.033 115.88 181.593 117.32C182.153 118.72 182.433 120.4 182.433 122.36C182.433 123.2 181.953 124.02 180.993 124.82C180.073 125.58 179.073 125.96 177.993 125.96L175.713 125.9C174.553 125.9 172.893 125.94 170.733 126.02L169.473 126.08C168.593 126.16 167.933 126.2 167.493 126.2C166.853 126.2 165.973 126.12 164.853 125.96C165.013 127.84 165.713 129.32 166.953 130.4C168.193 131.44 169.533 131.96 170.973 131.96C173.493 131.96 175.253 131.46 176.253 130.46C177.093 129.86 177.653 129.48 177.933 129.32C178.213 129.16 178.653 129.08 179.253 129.08C179.893 129.08 180.453 129.38 180.933 129.98C181.413 130.58 181.653 131.18 181.653 131.78C181.653 132.46 181.233 133.16 180.393 133.88C179.593 134.56 178.493 135.28 177.093 136.04C176.333 136.36 175.293 136.64 173.973 136.88C172.653 137.12 171.553 137.24 170.673 137.24C169.273 137.24 167.713 136.84 165.993 136.04C164.273 135.2 162.993 134.28 162.153 133.28C161.313 132.28 160.573 130.86 159.933 129.02C159.333 127.18 159.033 125.26 159.033 123.26ZM170.973 121.64C173.813 121.64 175.893 121.54 177.213 121.34C177.133 120.18 176.773 119.24 176.133 118.52C175.493 117.76 174.613 117.12 173.493 116.6C173.133 116.44 172.813 116.32 172.533 116.24C172.253 116.16 171.933 116.12 171.573 116.12C169.733 116.12 168.173 116.62 166.893 117.62C165.653 118.62 164.913 119.9 164.673 121.46C166.673 121.58 168.773 121.64 170.973 121.64ZM188.35 115.94C187.31 115.22 186.79 114.46 186.79 113.66C186.79 113.1 187.03 112.58 187.51 112.1C187.99 111.62 188.71 111.38 189.67 111.38C190.79 111.38 191.79 111.68 192.67 112.28C193.59 112.84 194.23 113.66 194.59 114.74C195.51 113.66 196.55 112.8 197.71 112.16C198.91 111.52 200.13 111.2 201.37 111.2C202.85 111.2 204.19 111.6 205.39 112.4C206.59 113.2 207.19 114.28 207.19 115.64C207.19 116.4 206.85 117.18 206.17 117.98C205.53 118.78 204.87 119.18 204.19 119.18C203.83 119.18 203.51 119.1 203.23 118.94C202.99 118.74 202.69 118.46 202.33 118.1C201.93 117.7 201.59 117.42 201.31 117.26C201.03 117.06 200.71 116.96 200.35 116.96C199.71 116.96 199.11 117.06 198.55 117.26C197.99 117.46 197.61 117.7 197.41 117.98C196.77 118.98 196.29 119.88 195.97 120.68C195.69 121.48 195.55 122.34 195.55 123.26C195.55 123.94 195.53 124.48 195.49 124.88L195.43 128.3C195.43 128.82 195.45 129.4 195.49 130.04C195.53 130.68 195.57 131.16 195.61 131.48C195.73 132.56 195.79 133.6 195.79 134.6C195.79 135.28 195.53 135.88 195.01 136.4C194.49 136.92 193.85 137.18 193.09 137.18C191.89 137.18 191.01 136.96 190.45 136.52C189.89 136.04 189.61 135.18 189.61 133.94L189.55 130.1C189.51 129.34 189.49 128.26 189.49 126.86L189.55 122.9C189.63 120.98 189.67 119.42 189.67 118.22C189.67 117.78 189.57 117.38 189.37 117.02C189.21 116.66 188.87 116.3 188.35 115.94ZM210.247 123.44C210.247 122 210.507 120.66 211.027 119.42C211.547 118.14 212.307 116.82 213.307 115.46C214.307 114.1 215.687 113.04 217.447 112.28C219.207 111.48 221.127 111.08 223.207 111.08C224.807 111.08 226.347 111.42 227.827 112.1C229.347 112.74 230.707 113.54 231.907 114.5C232.067 114.78 232.347 115.3 232.747 116.06C233.147 116.78 233.427 117.44 233.587 118.04C233.787 118.64 233.887 119.26 233.887 119.9C233.887 122.58 232.907 124.38 230.947 125.3C228.987 126.18 226.507 126.62 223.507 126.62C220.507 126.62 218.067 126.42 216.187 126.02C216.267 126.78 216.467 127.54 216.787 128.3C217.107 129.06 217.487 129.64 217.927 130.04C218.727 130.8 219.507 131.3 220.267 131.54C221.067 131.74 222.127 131.84 223.447 131.84C225.447 131.84 227.007 131.46 228.127 130.7C229.167 130.02 229.967 129.68 230.527 129.68C231.287 129.68 231.867 129.92 232.267 130.4C232.667 130.84 232.867 131.42 232.867 132.14C232.867 133.66 231.887 134.9 229.927 135.86C228.007 136.82 225.827 137.3 223.387 137.3C221.467 137.3 219.567 136.96 217.687 136.28C215.807 135.6 214.307 134.64 213.187 133.4C212.427 132.12 211.747 130.56 211.147 128.72C210.547 126.88 210.247 125.12 210.247 123.44ZM223.447 116C222.567 116 221.647 116.16 220.687 116.48C219.767 116.76 219.047 117.2 218.527 117.8C217.887 118.48 217.407 119.1 217.087 119.66C216.807 120.22 216.627 120.92 216.547 121.76C216.987 121.76 217.407 121.78 217.807 121.82C218.207 121.86 218.587 121.9 218.947 121.94C220.707 122.1 222.027 122.18 222.907 122.18C224.667 122.18 226.007 121.92 226.927 121.4C227.887 120.88 228.367 120.18 228.367 119.3C228.367 118.46 227.827 117.7 226.747 117.02C225.707 116.34 224.607 116 223.447 116ZM260.649 102.2C260.649 104.36 260.529 107.52 260.289 111.68C260.049 115.68 259.929 118.74 259.929 120.86C259.929 121.42 259.969 122.58 260.049 124.34C260.009 125.02 259.769 125.54 259.329 125.9C258.889 126.22 258.369 126.38 257.769 126.38C257.129 126.38 256.549 126.22 256.029 125.9C255.509 125.58 255.189 125.16 255.069 124.64C254.589 121.36 254.349 117.44 254.349 112.88L254.409 103.52C254.409 102.04 254.589 100.84 254.949 99.92C255.349 98.96 256.189 98.48 257.469 98.48C258.549 98.48 259.349 98.84 259.869 99.56C260.389 100.24 260.649 101.12 260.649 102.2ZM257.469 129.5C260.189 129.5 261.549 130.52 261.549 132.56C261.549 133.6 261.209 134.56 260.529 135.44C259.889 136.28 259.069 136.7 258.069 136.7C256.869 136.7 255.889 136.34 255.129 135.62C254.369 134.86 253.989 133.98 253.989 132.98C253.989 132.1 254.309 131.3 254.949 130.58C255.629 129.86 256.469 129.5 257.469 129.5Z" fill="white"/>
<defs>
<filter id="filter0_ii_4074_7022" x="13.6289" y="0" width="321.369" height="217.982" filterUnits="userSpaceOnUse" color-interpolation-filters="sRGB">
<feFlood flood-opacity="0" result="BackgroundImageFix"/>
<feBlend mode="normal" in="SourceGraphic" in2="BackgroundImageFix" result="shape"/>
<feColorMatrix in="SourceAlpha" type="matrix" values="0 0 0 0 0 0 0 0 0 0 0 0 0 0 0 0 0 0 127 0" result="hardAlpha"/>
<feOffset dy="4"/>
<feGaussianBlur stdDeviation="2"/>
<feComposite in2="hardAlpha" operator="arithmetic" k2="-1" k3="1"/>
<feColorMatrix type="matrix" values="0 0 0 0 0.2 0 0 0 0 0.01 0 0 0 0 0.01 0 0 0 0.25 0"/>
<feBlend mode="normal" in2="shape" result="effect1_innerShadow_4074_7022"/>
<feColorMatrix in="SourceAlpha" type="matrix" values="0 0 0 0 0 0 0 0 0 0 0 0 0 0 0 0 0 0 127 0" result="hardAlpha"/>
<feOffset dy="4"/>
<feGaussianBlur stdDeviation="2"/>
<feComposite in2="hardAlpha" operator="arithmetic" k2="-1" k3="1"/>
<feColorMatrix type="matrix" values="0 0 0 0 0.7625 0 0 0 0 0.0603646 0 0 0 0 0.0603646 0 0 0 1 0"/>
<feBlend mode="normal" in2="effect1_innerShadow_4074_7022" result="effect2_innerShadow_4074_7022"/>
</filter>
</defs>
</svg>
